<?xml version="1.0" encoding="UTF-8" standalone="no"?>
<!-- Created with Inkscape (http://www.inkscape.org/) -->

<svg
   xmlns:dc="http://purl.org/dc/elements/1.1/"
   xmlns:cc="http://creativecommons.org/ns#"
   xmlns:rdf="http://www.w3.org/1999/02/22-rdf-syntax-ns#"
   xmlns:svg="http://www.w3.org/2000/svg"
   xmlns="http://www.w3.org/2000/svg"
   xmlns:sodipodi="http://sodipodi.sourceforge.net/DTD/sodipodi-0.dtd"
   xmlns:inkscape="http://www.inkscape.org/namespaces/inkscape"
   width="100mm"
   height="35mm"
   viewBox="0 0 100 35"
   version="1.1"
   id="svg8"
   inkscape:version="0.92.3 (2405546, 2018-03-11)"
   sodipodi:docname="track_widget_preview.svg"
   enable-background="new">
  <defs
     id="defs2">
    <marker
       inkscape:stockid="Arrow1Lstart"
       orient="auto"
       refY="0.0"
       refX="0.0"
       id="Arrow1Lstart"
       style="overflow:visible"
       inkscape:isstock="true">
      <path
         id="path819"
         d="M 0.0,0.0 L 5.0,-5.0 L -12.5,0.0 L 5.0,5.0 L 0.0,0.0 z "
         style="fill-rule:evenodd;stroke:none;stroke-width:1pt;stroke-opacity:1;fill:#000000;fill-opacity:0.50196078"
         transform="scale(0.8) translate(12.5,0)" />
    </marker>
    <filter
       inkscape:collect="always"
       style="color-interpolation-filters:sRGB"
       id="filter1242">
      <feBlend
         inkscape:collect="always"
         mode="darken"
         in2="BackgroundImage"
         id="feBlend1244" />
    </filter>
  </defs>
  <sodipodi:namedview
     id="base"
     pagecolor="#ffffff"
     bordercolor="#666666"
     borderopacity="1.0"
     inkscape:pageopacity="0.0"
     inkscape:pageshadow="2"
     inkscape:zoom="4"
     inkscape:cx="168.97257"
     inkscape:cy="69.704726"
     inkscape:document-units="mm"
     inkscape:current-layer="text1232"
     showgrid="false"
     inkscape:pagecheckerboard="true"
     inkscape:window-width="1920"
     inkscape:window-height="1015"
     inkscape:window-x="0"
     inkscape:window-y="0"
     inkscape:window-maximized="1" />
  <metadata
     id="metadata5">
    <rdf:RDF>
      <cc:Work
         rdf:about="">
        <dc:format>image/svg+xml</dc:format>
        <dc:type
           rdf:resource="http://purl.org/dc/dcmitype/StillImage" />
        <dc:title />
      </cc:Work>
    </rdf:RDF>
  </metadata>
  <g
     inkscape:groupmode="layer"
     id="layer2"
     inkscape:label="shadow"
     style="display:inline">
    <rect
       style="opacity:1;fill:none;fill-opacity:1;stroke:#d3d3d3;stroke-width:2.64583325;stroke-linecap:round;stroke-linejoin:round;stroke-miterlimit:4;stroke-dasharray:none;stroke-opacity:0.94527366;paint-order:fill markers stroke"
       id="rect1101-3"
       width="89.235344"
       height="23.941399"
       x="5.2882309"
       y="6.3217783" />
  </g>
  <g
     inkscape:label="Background"
     inkscape:groupmode="layer"
     id="layer1"
     transform="translate(0,-262)"
     style="display:inline">
    <rect
       style="opacity:1;fill:#ffffff;fill-opacity:1;stroke:#ffffff;stroke-width:2.64583325;stroke-linecap:round;stroke-linejoin:round;stroke-miterlimit:4;stroke-dasharray:none;stroke-opacity:1;paint-order:fill markers stroke"
       id="rect1101"
       width="89.235344"
       height="23.941399"
       x="5.2882295"
       y="267.67685" />
  </g>
  <g
     inkscape:groupmode="layer"
     id="layer3"
     inkscape:label="Foreground"
     style="display:inline;opacity:1;filter:url(#filter1242)">
    <g
       id="g1224"
       transform="matrix(0.73230499,0,0,0.73230499,74.890281,8.6603901)"
       style="stroke:none;stroke-opacity:0.98507463">
      <path
         id="path1210"
         d="M 0,0 H 24 V 24 H 0 Z"
         inkscape:connector-curvature="0"
         style="fill:none;stroke:none;stroke-opacity:0.98507463" />
      <path
         id="path1212"
         d="M 19,3 H 5 C 3.89,3 3,3.9 3,5 v 14 c 0,1.1 0.89,2 2,2 h 14 c 1.1,0 2,-0.9 2,-2 V 5 C 21,3.9 20.1,3 19,3 Z m 0,16 H 5 V 5 h 14 z m -8,-2 h 2 v -4 h 4 V 11 H 13 V 7 h -2 v 4 H 7 v 2 h 4 z"
         inkscape:connector-curvature="0"
         style="fill:#74add1;fill-opacity:1;stroke:none;stroke-opacity:0.98507463" />
    </g>
    <g
       aria-label="Track widget"
       style="font-style:normal;font-variant:normal;font-weight:500;font-stretch:normal;font-size:8.81944466px;line-height:1.25;font-family:Roboto;-inkscape-font-specification:'Roboto, Medium';font-variant-ligatures:normal;font-variant-caps:normal;font-variant-numeric:normal;font-feature-settings:normal;text-align:start;letter-spacing:0px;word-spacing:0px;writing-mode:lr-tb;text-anchor:start;fill:#000000;fill-opacity:1;stroke:none;stroke-width:0.26458332"
       id="text1232">
      <path
         d="m 23.162535,14.954064 h -1.955091 v 5.391574 h -1.080899 v -5.391574 h -1.937866 v -0.8785 h 4.973856 z"
         style="font-style:normal;font-variant:normal;font-weight:500;font-stretch:normal;font-size:8.81944466px;font-family:Roboto;-inkscape-font-specification:'Roboto, Medium';font-variant-ligatures:normal;font-variant-caps:normal;font-variant-numeric:normal;font-feature-settings:normal;text-align:start;writing-mode:lr-tb;text-anchor:start;stroke-width:0.26458332"
         id="path863" />
      <path
         d="m 26.052109,16.642161 q -0.206706,-0.03445 -0.42633,-0.03445 -0.719164,0 -0.968933,0.551215 v 3.186713 h -1.046448 v -4.659491 h 0.999077 l 0.02584,0.52107 q 0.37896,-0.607198 1.050754,-0.607198 0.223931,0 0.370348,0.06029 z"
         style="font-style:normal;font-variant:normal;font-weight:500;font-stretch:normal;font-size:8.81944466px;font-family:Roboto;-inkscape-font-specification:'Roboto, Medium';font-variant-ligatures:normal;font-variant-caps:normal;font-variant-numeric:normal;font-feature-settings:normal;text-align:start;writing-mode:lr-tb;text-anchor:start;stroke-width:0.26458332"
         id="path865" />
      <path
         d="m 29.376626,20.345638 q -0.0689,-0.133497 -0.120578,-0.434943 -0.499539,0.521071 -1.223009,0.521071 -0.701938,0 -1.145494,-0.400493 -0.443556,-0.400492 -0.443556,-0.990465 0,-0.745002 0.551215,-1.141188 0.555522,-0.400492 1.584744,-0.400492 h 0.641649 v -0.305752 q 0,-0.361735 -0.202399,-0.577054 -0.2024,-0.219625 -0.615811,-0.219625 -0.357429,0 -0.585666,0.180868 -0.228238,0.176561 -0.228238,0.452169 h -1.046448 q 0,-0.383267 0.254076,-0.714858 0.254076,-0.335896 0.689019,-0.525377 0.43925,-0.18948 0.977546,-0.18948 0.81821,0 1.30483,0.413412 0.48662,0.409105 0.499539,1.154107 v 2.101508 q 0,0.62873 0.176561,1.003384 v 0.07321 z m -1.1498,-0.753614 q 0.310058,0 0.58136,-0.150723 0.275607,-0.150723 0.413411,-0.404799 v -0.878499 h -0.564134 q -0.58136,0 -0.874193,0.202399 -0.292833,0.202399 -0.292833,0.572747 0,0.301446 0.198093,0.482313 0.202399,0.176562 0.538296,0.176562 z"
         style="font-style:normal;font-variant:normal;font-weight:500;font-stretch:normal;font-size:8.81944466px;font-family:Roboto;-inkscape-font-specification:'Roboto, Medium';font-variant-ligatures:normal;font-variant-caps:normal;font-variant-numeric:normal;font-feature-settings:normal;text-align:start;writing-mode:lr-tb;text-anchor:start;stroke-width:0.26458332"
         id="path867" />
      <path
         d="m 33.278197,19.59633 q 0.39188,0 0.650262,-0.228238 0.258382,-0.228237 0.275608,-0.564134 h 0.986158 q -0.01722,0.434943 -0.271301,0.813904 -0.254076,0.374654 -0.689019,0.594279 -0.434943,0.219625 -0.938788,0.219625 -0.977546,0 -1.550293,-0.633037 -0.572748,-0.633036 -0.572748,-1.748386 v -0.107659 q 0,-1.063673 0.568441,-1.701016 0.568441,-0.641649 1.550293,-0.641649 0.831129,0 1.3522,0.48662 0.525377,0.482313 0.551215,1.270379 h -0.986158 q -0.01723,-0.400492 -0.275608,-0.658875 -0.254076,-0.258382 -0.650262,-0.258382 -0.508151,0 -0.783759,0.370348 -0.275607,0.366041 -0.279914,1.11535 v 0.167948 q 0,0.757921 0.271301,1.132575 0.275608,0.370348 0.792372,0.370348 z"
         style="font-style:normal;font-variant:normal;font-weight:500;font-stretch:normal;font-size:8.81944466px;font-family:Roboto;-inkscape-font-specification:'Roboto, Medium';font-variant-ligatures:normal;font-variant-caps:normal;font-variant-numeric:normal;font-feature-settings:normal;text-align:start;writing-mode:lr-tb;text-anchor:start;stroke-width:0.26458332"
         id="path869" />
      <path
         d="m 37.494133,18.347483 -0.465087,0.478007 v 1.520148 h -1.046448 v -6.614583 h 1.046448 v 3.815443 l 0.327284,-0.409105 1.287604,-1.451246 h 1.25746 l -1.731161,1.942172 1.916335,2.717319 h -1.21009 z"
         style="font-style:normal;font-variant:normal;font-weight:500;font-stretch:normal;font-size:8.81944466px;font-family:Roboto;-inkscape-font-specification:'Roboto, Medium';font-variant-ligatures:normal;font-variant-caps:normal;font-variant-numeric:normal;font-feature-settings:normal;text-align:start;writing-mode:lr-tb;text-anchor:start;stroke-width:0.26458332"
         id="path871" />
      <path
         d="m 46.877711,18.903005 0.740695,-3.216858 h 1.02061 l -1.270379,4.659491 h -0.861274 l -0.999078,-3.199632 -0.981852,3.199632 h -0.861274 l -1.274685,-4.659491 h 1.020609 l 0.753615,3.182407 0.956014,-3.182407 h 0.788066 z"
         style="font-style:normal;font-variant:normal;font-weight:500;font-stretch:normal;font-size:8.81944466px;font-family:Roboto;-inkscape-font-specification:'Roboto, Medium';font-variant-ligatures:normal;font-variant-caps:normal;font-variant-numeric:normal;font-feature-settings:normal;text-align:start;writing-mode:lr-tb;text-anchor:start;stroke-width:0.26458332"
         id="path873" />
      <path
         d="m 50.460611,20.345638 h -1.046448 v -4.659491 h 1.046448 z m -1.111043,-5.869581 q 0,-0.241157 0.150723,-0.400493 0.155029,-0.159335 0.439249,-0.159335 0.284221,0 0.43925,0.159335 0.155029,0.159336 0.155029,0.400493 0,0.23685 -0.155029,0.396186 -0.155029,0.155029 -0.43925,0.155029 -0.28422,0 -0.439249,-0.155029 -0.150723,-0.159336 -0.150723,-0.396186 z"
         style="font-style:normal;font-variant:normal;font-weight:500;font-stretch:normal;font-size:8.81944466px;font-family:Roboto;-inkscape-font-specification:'Roboto, Medium';font-variant-ligatures:normal;font-variant-caps:normal;font-variant-numeric:normal;font-feature-settings:normal;text-align:start;writing-mode:lr-tb;text-anchor:start;stroke-width:0.26458332"
         id="path875" />
      <path
         d="m 51.408013,17.981441 q 0,-1.076592 0.499539,-1.726854 0.499539,-0.654568 1.339281,-0.654568 0.740696,0 1.197171,0.516764 v -2.385728 h 1.046447 v 6.614583 H 54.54305 l -0.05168,-0.482313 q -0.469394,0.568441 -1.253154,0.568441 -0.81821,0 -1.326362,-0.658875 -0.503845,-0.658874 -0.503845,-1.79145 z m 1.046448,0.09043 q 0,0.710551 0.271301,1.111044 0.275608,0.396186 0.779453,0.396186 0.641649,0 0.938789,-0.572748 v -1.989542 q -0.288527,-0.559828 -0.930176,-0.559828 -0.508152,0 -0.783759,0.404798 -0.275608,0.400493 -0.275608,1.21009 z"
         style="font-style:normal;font-variant:normal;font-weight:500;font-stretch:normal;font-size:8.81944466px;font-family:Roboto;-inkscape-font-specification:'Roboto, Medium';font-variant-ligatures:normal;font-variant-caps:normal;font-variant-numeric:normal;font-feature-settings:normal;text-align:start;writing-mode:lr-tb;text-anchor:start;stroke-width:0.26458332"
         id="path877" />
      <path
         d="m 56.399093,17.981441 q 0,-1.085205 0.508152,-1.73116 0.512458,-0.650262 1.356506,-0.650262 0.796679,0 1.253154,0.555522 l 0.04737,-0.469394 h 0.943095 v 4.517381 q 0,0.917257 -0.572747,1.44694 -0.568441,0.529684 -1.537374,0.529684 -0.512458,0 -1.003384,-0.215319 -0.48662,-0.211012 -0.740696,-0.555521 l 0.495232,-0.62873 q 0.482314,0.572747 1.188558,0.572747 0.521071,0 0.822517,-0.284221 0.301446,-0.279914 0.301446,-0.826823 V 19.92792 q -0.452169,0.503846 -1.205784,0.503846 -0.81821,0 -1.33928,-0.650262 -0.516765,-0.650262 -0.516765,-1.800063 z m 1.042142,0.09043 q 0,0.701938 0.28422,1.106737 0.288527,0.400493 0.796678,0.400493 0.633037,0 0.938789,-0.542603 V 16.98667 q -0.29714,-0.529683 -0.930176,-0.529683 -0.516764,0 -0.805291,0.409105 -0.28422,0.409105 -0.28422,1.205783 z"
         style="font-style:normal;font-variant:normal;font-weight:500;font-stretch:normal;font-size:8.81944466px;font-family:Roboto;-inkscape-font-specification:'Roboto, Medium';font-variant-ligatures:normal;font-variant-caps:normal;font-variant-numeric:normal;font-feature-settings:normal;text-align:start;writing-mode:lr-tb;text-anchor:start;stroke-width:0.26458332"
         id="path879" />
      <path
         d="m 63.629491,20.431766 q -0.994772,0 -1.614889,-0.624424 -0.615811,-0.62873 -0.615811,-1.670871 V 18.00728 q 0,-0.697632 0.266995,-1.244541 0.271302,-0.551215 0.757921,-0.856968 0.48662,-0.305752 1.085205,-0.305752 0.951708,0 1.468472,0.607198 0.521071,0.607198 0.521071,1.718242 v 0.422024 h -3.044603 q 0.04737,0.577053 0.383267,0.91295 0.340203,0.335897 0.852661,0.335897 0.719164,0 1.171332,-0.58136 l 0.564135,0.538296 q -0.279914,0.417718 -0.749308,0.650262 -0.465088,0.228238 -1.046448,0.228238 z m -0.124885,-3.992005 q -0.430637,0 -0.697632,0.301446 -0.262688,0.301446 -0.335897,0.839742 h 1.993849 v -0.07752 q -0.03445,-0.525377 -0.279914,-0.792372 -0.245463,-0.271301 -0.680406,-0.271301 z"
         style="font-style:normal;font-variant:normal;font-weight:500;font-stretch:normal;font-size:8.81944466px;font-family:Roboto;-inkscape-font-specification:'Roboto, Medium';font-variant-ligatures:normal;font-variant-caps:normal;font-variant-numeric:normal;font-feature-settings:normal;text-align:start;writing-mode:lr-tb;text-anchor:start;stroke-width:0.26458332"
         id="path881" />
      <path
         d="m 67.625799,14.553571 v 1.132576 h 0.822516 v 0.775146 h -0.822516 v 2.601047 q 0,0.266995 0.103352,0.387573 0.10766,0.116272 0.378961,0.116272 0.180867,0 0.366041,-0.04306 v 0.809597 q -0.357428,0.09905 -0.689019,0.09905 -1.205783,0 -1.205783,-1.330668 v -2.639805 h -0.766534 v -0.775146 h 0.766534 v -1.132576 z"
         style="font-style:normal;font-variant:normal;font-weight:500;font-stretch:normal;font-size:8.81944466px;font-family:Roboto;-inkscape-font-specification:'Roboto, Medium';font-variant-ligatures:normal;font-variant-caps:normal;font-variant-numeric:normal;font-feature-settings:normal;text-align:start;writing-mode:lr-tb;text-anchor:start;stroke-width:0.26458332"
         id="path883" />
    </g>
  </g>
  <g
     inkscape:groupmode="layer"
     id="layer4"
     inkscape:label="TextStore"
     style="display:none;opacity:1">
    <text
       id="text835"
       y="20.345638"
       x="17.994892"
       style="font-style:normal;font-variant:normal;font-weight:500;font-stretch:normal;font-size:8.81944466px;line-height:1.25;font-family:Roboto;-inkscape-font-specification:'Roboto, Medium';font-variant-ligatures:normal;font-variant-caps:normal;font-variant-numeric:normal;font-feature-settings:normal;text-align:start;letter-spacing:0px;word-spacing:0px;writing-mode:lr-tb;text-anchor:start;opacity:1;fill:#000000;fill-opacity:1;stroke:none;stroke-width:0.26458332;filter:url(#filter1242)"
       xml:space="preserve"><tspan
         style="font-style:normal;font-variant:normal;font-weight:500;font-stretch:normal;font-size:8.81944466px;font-family:Roboto;-inkscape-font-specification:'Roboto, Medium';font-variant-ligatures:normal;font-variant-caps:normal;font-variant-numeric:normal;font-feature-settings:normal;text-align:start;writing-mode:lr-tb;text-anchor:start;stroke-width:0.26458332"
         y="20.345638"
         x="17.994892"
         id="tspan833"
         sodipodi:role="line">Track widget</tspan></text>
  </g>
</svg>
